<svg width="36" height="37" viewBox="0 0 36 37" fill="none" xmlns="http://www.w3.org/2000/svg">
<path fill-rule="evenodd" clip-rule="evenodd" d="M3.28216 7.08415C2.18501 7.08415 1.46558 7.4707 0.746136 8.31743C0.0266953 9.16416 -0.099205 10.379 0.0626678 11.4816L1.77134 23.5568C2.09508 25.8779 4.03757 27.588 6.32179 27.588H25.9445C28.3366 27.588 30.3151 25.7123 30.5129 23.2825L32.1676 3.21678L34.8835 2.73819C35.603 2.60934 36.1066 1.89146 35.9807 1.15517C35.8548 0.402314 35.1533 -0.0965227 34.4159 0.0157616L30.1262 0.676582C29.5147 0.788866 29.0651 1.30243 29.0111 1.92827L28.6694 6.0515C28.6154 6.64237 28.1478 7.08415 27.5722 7.08415H3.28216ZM26.2329 30.4973C27.7437 30.4973 28.9667 31.749 28.9667 33.2952C28.9667 34.823 27.7437 36.0747 26.2329 36.0747C24.74 36.0747 23.517 34.823 23.517 33.2952C23.517 31.749 24.74 30.4973 26.2329 30.4973ZM5.9989 30.4973C7.50972 30.4973 8.73276 31.749 8.73276 33.2952C8.73276 34.823 7.50972 36.0747 5.9989 36.0747C4.50606 36.0747 3.28301 34.823 3.28301 33.2952C3.28301 31.749 4.50606 30.4973 5.9989 30.4973Z" fill="#5580E9"/>
</svg>
